<?xml version="1.0" standalone="no"?>
<!DOCTYPE svg PUBLIC "-//W3C//DTD SVG 20010904//EN"
 "http://www.w3.org/TR/2001/REC-SVG-20010904/DTD/svg10.dtd">
<svg version="1.0" xmlns="http://www.w3.org/2000/svg"
 width="260.000000pt" height="260.000000pt" viewBox="0 0 260.000000 260.000000"
 preserveAspectRatio="xMidYMid meet">
<metadata>
Created by potrace 1.14, written by Peter Selinger 2001-2017
</metadata>
<g transform="translate(0.000000,260.000000) scale(0.100000,-0.100000)"
fill="#000000" stroke="none">
<path d="M949 2497 c-46 -56 -88 -107 -94 -113 -18 -20 -58 -67 -109 -129 -28
-33 -53 -62 -56 -65 -3 -3 -21 -25 -40 -50 -19 -25 -38 -49 -43 -55 -49 -60
-105 -145 -139 -210 l-43 -80 0 -185 c1 -296 18 -515 44 -584 10 -25 14 -27
25 -15 7 8 71 127 141 264 70 138 143 281 162 318 20 37 37 84 39 105 7 81 17
119 42 172 69 143 221 222 417 219 269 -5 425 -139 448 -386 3 -28 16 -71 30
-95 13 -24 47 -86 74 -138 233 -444 238 -453 252 -458 19 -6 33 78 46 283 2
33 5 155 5 270 2 204 1 213 -23 267 -44 99 -131 217 -326 443 -52 61 -98 112
-101 115 -3 3 -30 34 -60 70 -30 35 -61 71 -68 79 -7 7 -20 24 -28 37 -15 23
-16 23 -264 23 l-248 0 -83 -102z"/>
<path d="M1011 1905 c-17 -33 -50 -96 -74 -140 -23 -44 -74 -138 -111 -210
-38 -71 -86 -161 -106 -200 -21 -38 -57 -106 -80 -150 -24 -44 -57 -107 -75
-140 -18 -33 -52 -98 -77 -145 -25 -47 -63 -119 -85 -160 -22 -41 -64 -120
-93 -175 -29 -55 -69 -131 -90 -170 -21 -38 -59 -110 -85 -160 -26 -50 -67
-127 -92 -173 l-45 -82 223 2 223 3 1 145 c2 209 4 232 14 225 8 -4 23 -67 26
-107 1 -20 18 -17 52 10 21 16 135 100 253 187 l215 156 52 154 c29 85 55 178
58 207 3 29 7 69 10 88 2 19 7 60 10 90 13 112 55 338 78 417 38 132 73 168
113 118 45 -56 103 -313 139 -615 15 -130 24 -175 42 -217 7 -18 13 -36 14
-40 0 -5 13 -51 30 -103 l30 -95 132 -94 c322 -230 398 -283 402 -279 2 2 6
20 9 38 10 71 19 101 28 92 9 -9 17 -152 18 -309 l0 -73 215 0 215 0 -41 77
c-23 43 -49 91 -59 108 -9 16 -45 84 -80 150 -35 66 -66 125 -70 130 -4 6 -31
55 -60 110 -29 55 -60 114 -70 130 -10 17 -41 75 -70 130 -29 55 -65 123 -80
150 -15 28 -58 106 -95 175 -37 69 -82 152 -100 185 -18 33 -52 96 -75 140
-23 44 -55 103 -70 130 -28 52 -67 125 -140 260 -24 44 -45 82 -47 85 -3 3
-116 5 -253 5 l-248 0 -31 -60z"/>
<path d="M1266 1528 c-8 -18 -17 -71 -20 -118 -4 -47 -9 -98 -11 -115 -3 -16
-7 -48 -9 -70 -2 -22 -8 -74 -12 -115 -5 -41 -8 -82 -9 -90 0 -21 63 -60 99
-60 17 0 46 9 65 21 l33 20 -7 74 c-3 41 -8 89 -10 107 -26 212 -34 264 -51
326 -18 64 -47 72 -68 20z"/>
</g>
</svg>
